<svg xmlns="http://www.w3.org/2000/svg" viewBox="0 0 234.46 78.91"><defs><style>.a{font-size:70.05px;font-family:Roboto-Regular, Roboto;}.b{letter-spacing:-0.01em;}.c{stroke:#000;stroke-miterlimit:10;}</style></defs><title>logo</title><rect x="1.6" y="-0.02" width="7.14" height="67.56" transform="translate(-1.6 1.01) rotate(-0.11)"/><rect x="11.1" y="8.77" width="7.14" height="29.37" transform="translate(-1.58 1.03) rotate(-0.11)"/><rect x="20.64" y="20.5" width="7.14" height="26.44" transform="translate(-1.6 1.05) rotate(-0.11)"/><rect x="30.18" y="32.23" width="7.14" height="29.37" transform="translate(-1.63 1.06) rotate(-0.11)"/><rect x="39.67" y="20.47" width="7.14" height="26.44" transform="translate(-1.6 1.08) rotate(-0.11)"/><rect x="49.17" y="8.7" width="7.14" height="29.37" transform="translate(-1.58 1.1) rotate(-0.11)"/><rect x="58.7" y="-0.13" width="7.14" height="67.56" transform="translate(-1.6 1.12) rotate(-0.11)"/><text class="a" transform="translate(63.51 59.92)">EZ<tspan class="b" x="81.75" y="0">Z</tspan><tspan x="122.79" y="0">O</tspan></text><path class="c" d="M194.5,29.78" transform="translate(-1.54 1)"/><path class="c" d="M74.5,29.78" transform="translate(-1.54 1)"/><rect x="75.46" y="31.5" width="119" height="5.5"/></svg>